<?xml version="1.0" encoding="UTF-8"?>
<svg width="82px" height="52px" viewBox="0 0 82 52" version="1.1" xmlns="http://www.w3.org/2000/svg" xmlns:xlink="http://www.w3.org/1999/xlink">
    <!-- Generator: Sketch 51.3 (57544) - http://www.bohemiancoding.com/sketch -->
    <title>493808</title>
    <desc>Created with Sketch.</desc>
    <defs></defs>
    <g id="Page-1" stroke="none" stroke-width="1" fill="none" fill-rule="evenodd">
        <g id="home4" transform="translate(-1130.000000, -1999.000000)" fill="#8B91DD" fill-rule="nonzero">
            <g id="493808" transform="translate(1130.000000, 1999.000000)">
                <path d="M64.2354549,35.741739 C62.634444,32.3556048 56.9067831,27.6555231 51.3730344,23.114169 C48.2865315,20.5830947 45.3700404,18.1900584 43.5107454,16.3039159 C43.0450055,15.8280564 42.348228,15.6762793 41.7330306,15.9004698 C40.5875622,16.321211 39.8804278,16.6452933 39.3230695,16.8969621 C38.4733292,17.283113 38.1877986,17.4142007 37.0421708,17.5313875 C36.5356408,17.5831114 36.0802578,17.8590258 35.7980732,18.2865557 C33.3948042,21.9313092 30.906609,21.6209661 29.244413,21.0555597 C28.7141419,20.8763043 28.6190182,20.6451633 28.5680306,20.4245288 C28.2111173,18.9107979 30.002535,15.3866257 32.3240645,13.0314125 C37.847775,7.42454707 40.6962295,6.0210527 46.7127671,8.74867765 C53.538255,11.8451583 60.3774458,14.2693905 60.4454823,14.2934744 C61.3395182,14.6072119 62.3014312,14.1313525 62.6107029,13.2313575 C62.9166286,12.3313625 62.4508887,11.3486093 61.5637043,11.0348718 C61.4956677,11.0107879 54.7925501,8.63488517 48.1029761,5.59691713 C40.3087237,2.06240012 36.0324569,4.3899734 29.9241416,10.5900467 C27.5991067,12.9486543 24.4412211,17.7209877 25.2570229,21.2210761 C25.6070846,22.710723 26.6405397,23.814219 28.17686,24.3279015 C32.028177,25.6176034 35.5428165,24.3830197 38.1602334,20.8590091 C39.2411707,20.6900984 39.8292809,20.4418239 40.7129598,20.0383779 C41.0324291,19.8935511 41.4063913,19.7246404 41.9027238,19.5211394 C43.8471043,21.3728532 46.4712133,23.5279598 49.2347416,25.7934645 C54.2315271,29.8933878 59.8980029,34.5417456 61.1726931,37.2313859 C61.8015933,38.5589108 61.1250515,39.4244772 60.6661631,39.8209728 C59.9931267,40.4072303 59.0720037,40.5934362 58.5723251,40.238158 C58.021659,39.8554015 57.3044864,39.8313176 56.7367713,40.1760894 C56.1657101,40.5208611 55.8462409,41.1725817 55.9176235,41.8415974 C56.0331423,42.938143 55.0439827,43.5657796 54.6156868,43.7830198 C53.5278981,44.3416373 52.3926272,44.24514 51.9676774,43.8450884 C51.4917399,43.3968689 50.808506,43.2657813 50.2035062,43.4933662 C49.5985063,43.7243455 49.1769026,44.2899135 49.1157174,44.9450284 C49.0137422,46.0760027 48.187743,47.1622036 47.1101518,47.5863392 C46.5900782,47.7862842 45.8354616,47.907027 45.1590792,47.2793904 C44.7376347,46.8932396 44.1528706,46.7448568 43.6057098,46.8793388 C43.0516976,47.0172152 42.6063527,47.4242172 42.4125998,47.9655396 C42.3480687,48.1380064 42.201798,48.5517972 40.6109846,48.5517972 C39.4790598,48.5517972 37.4429015,47.7759394 36.4470498,47.1069237 C35.2539398,46.3103764 27.7723052,40.6483928 21.3105821,35.1587142 C20.4030027,34.3828564 18.8325844,32.7207428 17.4457215,31.2517855 C16.2151675,29.9483444 15.0900941,28.7656462 14.5121814,28.2690973 C13.7881574,27.6484111 12.7174176,27.741514 12.1157639,28.4725983 C11.5107641,29.2001266 11.5990364,30.2898835 12.3163682,30.9036193 C12.8432933,31.3553948 13.8630454,32.4483844 14.9881188,33.638033 C16.5042035,35.2448667 18.0711164,36.9069804 19.1249665,37.803581 C25.4542812,43.1794671 33.0616321,48.9828831 34.5775574,49.9931146 C35.8285064,50.8276466 38.5239981,52 40.611144,52 C42.2868835,52 43.5752766,51.6102931 44.4691531,50.8483361 C45.6656092,51.3208012 47.0253849,51.3241956 48.3340137,50.8069571 C49.8806909,50.20001 51.1518756,48.9759327 51.8725536,47.4932362 C53.211775,47.7828898 54.7449086,47.5793888 56.1384636,46.8691556 C57.5015854,46.1726617 58.4872396,45.1071503 58.9767206,43.8622219 C60.3296449,43.9346353 61.7231999,43.4484311 62.8755198,42.4449884 C64.8269111,40.7520021 65.3638744,38.1176417 64.2354549,35.741739 Z" id="Shape"></path>
                <path d="M34.2198699,7.09090909 L18.8848921,7.09090909 C17.9443467,7.09090909 17.1809524,7.79687567 17.1809524,8.66666667 C17.1809524,9.53645767 17.9443467,10.2424242 18.8848921,10.2424242 L34.2198699,10.2424242 C35.1604152,10.2424242 35.9238095,9.53645767 35.9238095,8.66666667 C35.9238095,7.79687567 35.1604152,7.09090909 34.2198699,7.09090909 Z" id="Shape"></path>
                <path d="M69.9890508,32.3086467 C69.4481701,31.4897884 68.3665722,31.2644976 67.5675996,31.8223605 L62.4664419,35.3339801 C61.6674693,35.8846351 61.454519,36.9968407 61.991965,37.815699 C62.330363,38.3271292 62.8817114,38.6060606 63.4435273,38.6060606 C63.7750559,38.6060606 64.1134539,38.5095074 64.4135797,38.3021527 L69.5147375,34.7905331 C70.3135465,34.2397106 70.5263332,33.1276726 69.9890508,32.3086467 Z" id="Shape"></path>
                <path d="M59.4640663,40.1675498 C58.206238,39.1678986 52.5808452,33.3579247 49.1023414,29.6996268 C48.4311812,28.990599 47.3174671,28.9658403 46.6181429,29.6464539 C45.91536,30.323578 45.8942781,31.4471885 46.5654383,32.1527269 C47.4684987,33.1026946 55.4338112,41.4792596 57.2855545,42.9539777 C57.6052408,43.2092078 57.9917962,43.3333333 58.3712693,43.3333333 C58.8877744,43.3333333 59.4042795,43.0993724 59.7555886,42.6562092 C60.3565858,41.8903528 60.226636,40.7737212 59.4640663,40.1675498 Z" id="Shape"></path>
                <path d="M52.4781511,43.4793343 C50.4732612,41.8617355 45.4361694,36.4620357 44.2980935,35.212627 C43.66881,34.5237348 42.6145131,34.4832117 41.9317303,35.1113193 C41.2522422,35.7427512 41.2054892,36.8132885 41.8313211,37.4988566 C41.8915666,37.5629654 47.9027849,44.1109244 50.3861876,46.1168167 C50.6941615,46.3632793 51.0656757,46.4848485 51.4304436,46.4848485 C51.9191541,46.4848485 52.4077078,46.2652957 52.7390582,45.8534167 C53.3149993,45.123843 53.1978029,44.0601123 52.4781511,43.4793343 Z" id="Shape"></path>
                <path d="M45.481532,46.6556355 C43.0952677,44.6268669 38.2124542,39.3842856 37.2586388,38.3546313 C36.6261085,37.672784 35.5651457,37.6355981 34.8924548,38.2736135 C34.2164695,38.9116289 34.1828977,39.9783109 34.8121335,40.6603164 C36.1843414,42.1422147 40.8563114,47.1384195 43.322897,49.2380787 C43.6374365,49.5047097 44.0189627,49.6363636 44.4004889,49.6363636 C44.8756709,49.6363636 45.3510099,49.4304961 45.6823352,49.0355342 C46.2779993,48.319824 46.1876378,47.256465 45.481532,46.6556355 Z" id="Shape"></path>
                <path d="M19.7773625,3.94067007 C16.8770359,1.12559241 5.27937808,0.213775708 1.79368774,0.00235643662 C1.31318184,-0.0218568389 0.869796574,0.140973376 0.531427781,0.470371426 C0.192900353,0.796194362 0,1.25380902 0,1.73222434 L0,32.9332236 C0,33.8900543 0.758117423,34.6666667 1.69216124,34.6666667 L11.8448114,34.6666667 C12.5758022,34.6666667 13.2255718,34.1848387 13.4522614,33.4706284 C13.6992564,32.694016 19.5303675,14.3618038 20.298479,5.34812765 C20.3425796,4.82112327 20.1530105,4.30110662 19.7773625,3.94067007 Z M10.6095194,31.1999431 L3.38416384,31.1999431 L3.38416384,3.59047136 C8.82265298,4.03069796 14.6908848,4.9875286 16.8229413,6.04836258 C15.9261767,13.6406057 11.868448,27.1298378 10.6095194,31.1999431 Z" id="Shape"></path>
                <path d="M80.2662862,3.15151515 C66.6535364,3.15151515 59.1017149,6.6355206 58.786243,6.78112082 C58.3355457,6.99253365 57.9991073,7.38432177 57.8604688,7.85931001 C57.7218302,8.33429825 57.7910682,8.84389905 58.0511171,9.26672471 C60.1939205,12.7161176 66.9031833,31.8729475 68.1930261,36.5459673 C68.4010653,37.298181 69.0841814,37.8181818 69.8643282,37.8181818 L80.2662862,37.8181818 C81.2232663,37.8181818 82,37.0415931 82,36.0847916 L82,4.88474286 C82,3.92452886 81.2232663,3.15151515 80.2662862,3.15151515 Z M78.5327349,34.3515639 L71.1611598,34.3515639 C69.5176505,28.998968 64.6633492,15.0421462 61.955427,9.27371222 C64.6009375,8.37589831 70.2839822,6.8331209 78.5327349,6.6390956 L78.5327349,34.3515639 Z" id="Shape"></path>
            </g>
        </g>
    </g>
</svg>