<?xml version="1.0" encoding="UTF-8"?>
<svg width="70px" height="70px" viewBox="0 0 70 70" version="1.1" xmlns="http://www.w3.org/2000/svg" xmlns:xlink="http://www.w3.org/1999/xlink">
    <!-- Generator: Sketch 51.3 (57544) - http://www.bohemiancoding.com/sketch -->
    <title>841743</title>
    <desc>Created with Sketch.</desc>
    <defs></defs>
    <g id="Page-1" stroke="none" stroke-width="1" fill="none" fill-rule="evenodd">
        <g id="home4" transform="translate(-236.000000, -1987.000000)" fill="#8B91DD" fill-rule="nonzero">
            <g id="841743" transform="translate(236.000000, 1987.000000)">
                <path d="M34.7405103,8.4 C33.5951956,8.4 32.6666667,9.3286321 32.6666667,10.4740741 C32.6666667,11.619516 33.5951956,12.5481481 34.7405103,12.5481481 C41.6027207,12.5481481 47.185646,18.1307259 47.185646,24.9925926 C47.185646,26.1380346 48.114175,27.0666667 49.2594897,27.0666667 C50.4048044,27.0666667 51.3333333,26.1380346 51.3333333,24.9925926 C51.3333333,15.843437 43.8898937,8.4 34.7405103,8.4 Z" id="Shape"></path>
                <path d="M29.6863393,0.549385101 C20.3739904,2.48554561 12.8232515,9.92665851 10.8364247,19.2500623 C9.1587728,27.1229523 11.2261225,35.0270155 16.5083419,40.9355796 C19.0904335,43.8236185 20.5711753,47.6359173 20.5711753,51.405558 L20.5711753,55.5073033 C20.5711753,58.2363312 22.3667259,60.5547743 24.843698,61.3577594 C25.6582709,66.146547 29.8355678,70 34.9993388,70 C40.1617357,70 44.3401318,66.1477775 45.1549795,61.3577594 C47.6319517,60.5547743 49.4275023,58.2363312 49.4275023,55.5071666 L49.4275023,51.4054213 C49.4275023,47.6283974 50.9131909,43.8619014 53.6105704,40.7998118 C57.5589404,36.3179715 59.7333333,30.5673245 59.7333333,24.6074886 C59.7333333,9.08033173 45.4495889,-2.7273625 29.6863393,0.549385101 Z M34.9993388,65.8983914 C32.3497783,65.8983914 30.0267066,64.0843262 29.1688492,61.6462488 L40.8296909,61.6462488 C39.971971,64.0843262 37.6488992,65.8983914 34.9993388,65.8983914 Z M45.3051698,55.5073033 C45.3051698,56.6381545 44.3805307,57.5581759 43.2440036,57.5581759 L26.7546739,57.5581759 C25.6181469,57.5581759 24.6935077,56.6381545 24.6935077,55.5073033 L24.6935077,53.4564306 L45.3051698,53.4564306 L45.3051698,55.5073033 Z M50.5105764,38.0963515 C47.6359366,41.3595634 45.8673186,45.2945044 45.418534,49.3546853 L24.5805558,49.3546853 C24.1323209,45.2923168 22.3682374,41.3186826 19.5886861,38.209423 C15.1863099,33.285141 13.4660605,26.6847492 14.8691651,20.100901 C16.5069678,12.4150507 22.8003953,6.17151068 30.5296311,4.56458359 C43.7243928,1.82092615 55.6110009,11.6804281 55.6110009,24.6074886 C55.6110009,29.5722411 53.799648,34.3626695 50.5105764,38.0963515 Z" id="Shape"></path>
                <path d="M6.3,24.2666667 L2.1,24.2666667 C0.94024,24.2666667 0,25.1024356 0,26.1333333 C0,27.1642311 0.94024,28 2.1,28 L6.3,28 C7.45976,28 8.4,27.1642311 8.4,26.1333333 C8.4,25.1024356 7.45976,24.2666667 6.3,24.2666667 Z" id="Shape"></path>
                <path d="M7.75944389,14.933306 L4.66666667,11.8405514 C3.81273765,10.9864829 2.42796425,10.9864829 1.57388944,11.8405514 C0.71981463,12.69462 0.71981463,14.0792374 1.57388944,14.933306 L4.66666667,18.0260606 C5.52059568,18.8801291 6.90536908,18.8802749 7.75944389,18.0260606 C8.6135187,17.171992 8.6135187,15.7873746 7.75944389,14.933306 Z" id="Shape"></path>
                <path d="M7.75944389,36.1072181 C6.90536908,35.2531495 5.52059568,35.2531495 4.66666667,36.1072181 L1.57388944,39.1999727 C0.71981463,40.0540412 0.71981463,41.4386587 1.57388944,42.2927272 C2.42781846,43.1467958 3.81259185,43.1469416 4.66666667,42.2927272 L7.75944389,39.1999727 C8.6135187,38.3459041 8.6135187,36.9612866 7.75944389,36.1072181 Z" id="Shape"></path>
                <path d="M67.9,24.2666667 L63.7,24.2666667 C62.54024,24.2666667 61.6,25.1024356 61.6,26.1333333 C61.6,27.1642311 62.54024,28 63.7,28 L67.9,28 C69.05976,28 70,27.1642311 70,26.1333333 C70,25.1024356 69.05976,24.2666667 67.9,24.2666667 Z" id="Shape"></path>
                <path d="M69.3594439,11.8405608 C68.5055149,10.9864797 67.1207415,10.9864797 66.2666667,11.8405608 L63.1738894,14.9333607 C62.3198146,15.7874417 62.3198146,17.1720795 63.1738894,18.0261605 C64.0278185,18.8800958 65.4125919,18.8802416 66.2666667,18.0261605 L69.3594439,14.9333607 C70.2135187,14.0792796 70.2135187,12.6946419 69.3594439,11.8405608 Z" id="Shape"></path>
                <path d="M69.3594439,39.2000273 L66.2666667,36.1072275 C65.4127377,35.2531464 64.0279643,35.2531464 63.1738894,36.1072275 C62.3198146,36.9613085 62.3198146,38.3459463 63.1738894,39.2000273 L66.2666667,42.2928272 C67.1205957,43.1467625 68.5053691,43.1469083 69.3594439,42.2928272 C70.2135187,41.4387461 70.2135187,40.0541084 69.3594439,39.2000273 Z" id="Shape"></path>
            </g>
        </g>
    </g>
</svg>