<?xml version="1.0" encoding="UTF-8"?>
<svg width="72px" height="72px" viewBox="0 0 72 72" version="1.1" xmlns="http://www.w3.org/2000/svg" xmlns:xlink="http://www.w3.org/1999/xlink">
    <!-- Generator: Sketch 51.3 (57544) - http://www.bohemiancoding.com/sketch -->
    <title>1660114</title>
    <desc>Created with Sketch.</desc>
    <defs></defs>
    <g id="Page-1" stroke="none" stroke-width="1" fill="none" fill-rule="evenodd">
        <g id="home4" transform="translate(-835.000000, -1983.000000)" fill="#8B91DD" fill-rule="nonzero">
            <g id="1660114" transform="translate(835.000000, 1983.000000)">
                <path d="M72,48.7265625 C72,38.2318726 64.9286499,29.0626831 54.9569092,26.2996215 C54.3301391,11.6916504 42.25177,0 27.4921875,0 C12.3327027,0 0,12.3327027 0,27.4921875 C0,32.4327392 1.31506341,37.2431031 3.81225586,41.4662476 L0.101074219,54.8827515 L13.5181274,51.1721191 C17.4001465,53.4677124 21.7792969,54.7608032 26.2990723,54.9558105 C29.0615844,64.9281007 38.2313233,72 48.7265625,72 C52.9156493,72 56.9893798,70.8843383 60.5687257,68.7645264 L71.8983765,71.8983765 L68.7645264,60.5687257 C70.8843383,56.9893798 72,52.9156493 72,48.7265625 Z M14.1838989,46.6105957 L6.15179447,48.8325805 L8.3737793,40.8004761 L7.8673095,40.0083618 C5.48052975,36.2741089 4.21875,31.9460449 4.21875,27.4921875 C4.21875,14.6590577 14.6590577,4.21875 27.4921875,4.21875 C40.3253173,4.21875 50.765625,14.6590577 50.765625,27.4921875 C50.765625,40.3253173 40.3253173,50.765625 27.4921875,50.765625 C23.0383301,50.765625 18.7108155,49.5038452 14.9760132,47.1170655 L14.1838989,46.6105957 Z M65.8482055,65.8482055 L59.8881226,64.1991577 L59.0921632,64.7171632 C56.0066528,66.7216187 52.421814,67.78125 48.7265625,67.78125 C40.4780273,67.78125 33.2297973,62.447937 30.6617431,54.800354 C43.2927246,53.3441163 53.3441163,43.2927246 54.8009032,30.6611938 C62.447937,33.2297973 67.78125,40.4780273 67.78125,48.7265625 C67.78125,52.421814 66.7216187,56.0066528 64.7171632,59.0921632 L64.1991577,59.8881226 L65.8482055,65.8482055 Z" id="Shape"></path>
                <polygon id="Shape" points="25.8461538 37.8461538 30.4615385 37.8461538 30.4615385 42.4615385 25.8461538 42.4615385"></polygon>
                <path d="M30.9230769,21.3591442 C30.9230769,22.5569998 30.4427885,23.6625859 29.5709135,24.47269 L24.6923077,29.0070762 L24.6923077,34.1538462 L28.8461538,34.1538462 L28.8461538,30.8645489 L32.3753004,27.5845884 C34.0920072,25.9890952 35.0769231,23.7202544 35.0769231,21.3591442 C35.0769231,16.7072242 31.3503606,12.9230769 26.7692308,12.9230769 C22.1881009,12.9230769 18.4615385,16.7072242 18.4615385,21.3591442 L22.6153846,21.3591442 C22.6153846,19.0331842 24.4786658,17.1411105 26.7692308,17.1411105 C29.0597957,17.1411105 30.9230769,19.0331842 30.9230769,21.3591442 Z" id="Shape"></path>
            </g>
        </g>
    </g>
</svg>