<?xml version="1.0" encoding="UTF-8"?>
<svg width="68px" height="68px" viewBox="0 0 68 68" version="1.1" xmlns="http://www.w3.org/2000/svg" xmlns:xlink="http://www.w3.org/1999/xlink">
    <!-- Generator: Sketch 51.3 (57544) - http://www.bohemiancoding.com/sketch -->
    <title>3214714</title>
    <desc>Created with Sketch.</desc>
    <defs></defs>
    <g id="Page-1" stroke="none" stroke-width="1" fill="none" fill-rule="evenodd">
        <g id="home4" transform="translate(-537.000000, -1987.000000)" fill="#8B91DD" fill-rule="nonzero">
            <g id="3214714" transform="translate(537.000000, 1987.000000)">
                <path d="M67.4165391,14.3085165 C67.8826603,13.8422707 68.0879662,13.1755218 67.9649951,12.5276408 C67.8421569,11.8797597 67.4068448,11.3345882 66.8024807,11.0716357 L60.087413,8.14939437 L57.7309111,1.3407967 C57.5063495,0.691985521 56.9637366,0.204480255 56.2949654,0.0506151421 C55.6263271,-0.102984228 54.9254188,0.098183113 54.4400419,0.583695308 L50.6414856,4.38434961 C45.5304858,1.55511831 39.6726297,0.00902638544 33.9767873,0.00902638544 C24.9012336,0.00902638544 16.368957,3.54513368 9.95148975,9.96614539 C3.53402251,16.3871571 0,24.9240134 0,34.0044468 C0,43.0848801 3.53415531,51.6220022 9.95162255,58.042881 C16.368957,64.4637598 24.9013664,68 33.9769201,68 C43.0524737,68 51.5847503,64.4638927 58.0022176,58.042881 C64.419552,51.6220022 67.9538401,43.085013 67.9538401,34.0044468 C67.9538401,28.3477115 66.5475084,22.796609 63.8756111,17.851666 L67.4165391,14.3085165 Z M53.4641088,22.6315827 L49.3473683,21.5262253 L58.9361865,11.995225 L62.5310305,13.5596531 L53.4641088,22.6315827 Z M52.7139324,34.0044468 C52.7139324,44.3418438 44.3084779,52.7519408 33.9767873,52.7519408 C23.6450966,52.7519408 15.2396421,44.3418438 15.2396421,34.0044468 C15.2396421,23.6670497 23.6450966,15.2569527 33.9767873,15.2569527 C37.0878479,15.2569527 39.7392944,15.8710845 42.2777297,17.1825255 L43.3049228,21.9132798 L40.7789705,24.4240182 C38.8580463,23.0546453 36.5097778,22.2485144 33.9766545,22.2485144 C27.4978345,22.2485144 22.2270787,27.5221813 22.2270787,34.0045796 C22.2270787,40.4869779 27.4978345,45.7606449 33.9766545,45.7606449 C40.4554744,45.7606449 45.7262302,40.4869779 45.7262302,34.0045796 C45.7262302,31.492911 44.9344881,29.1628777 43.5881811,27.2505921 L46.0781451,24.775596 L50.9771991,26.0910232 C52.1598988,28.5143323 52.7139324,31.0415468 52.7139324,34.0044468 Z M41.7424206,34.0044468 C41.7424206,38.2887531 38.2587286,41.7743692 33.9767873,41.7743692 C29.694846,41.7743692 26.2111539,38.2887531 26.2111539,34.0044468 C26.2111539,29.7201405 29.694846,26.2345243 33.9767873,26.2345243 C35.402773,26.2345243 36.7391201,26.6227746 37.8888859,27.2966985 L32.5033926,32.6496897 C31.7229382,33.4253931 31.7188215,34.6874059 32.4940967,35.4682913 C32.8834607,35.8603949 33.3952645,36.0566459 33.9073339,36.0566459 C34.4148881,36.0566459 34.922708,35.8637166 35.3111424,35.4775923 L40.6991589,30.1220765 C41.3612901,31.2654352 41.7424206,32.5908276 41.7424206,34.0044468 Z M55.0073553,5.65313887 L56.199218,9.09663477 L46.6582071,18.5802 L45.8424285,14.8232604 L55.0073553,5.65313887 Z M63.9696321,34.0044468 C63.9696321,42.0203142 60.8498068,49.5562501 55.1849063,55.2242794 C49.5200058,60.8923087 41.988097,64.0137243 33.9767873,64.0137243 C25.9654775,64.0137243 18.4335687,60.8921759 12.7686682,55.2242794 C7.10376771,49.5562501 3.98394241,42.0203142 3.98394241,34.0044468 C3.98394241,25.9885793 7.10376771,18.4526434 12.7686682,12.784747 C18.4335687,7.11671764 25.9654775,3.9951692 33.9767873,3.9951692 C38.6336175,3.9951692 43.4189964,5.16908826 47.6949618,7.33236796 L42.2563492,12.7739844 C42.2510372,12.7792992 42.2463893,12.7848798 42.2410774,12.7901947 C39.6853783,11.770938 36.9599633,11.2708099 33.9766545,11.2708099 C21.448218,11.2708099 11.2555669,21.4690906 11.2555669,34.0044468 C11.2555669,46.5398029 21.448218,56.7380836 33.9766545,56.7380836 C46.505091,56.7380836 56.697742,46.5398029 56.697742,34.0044468 C56.697742,31.1976707 56.2810216,28.7011495 55.4045543,26.3210236 C55.4254036,26.3018901 55.4473153,26.2842182 55.4675006,26.2640218 L60.9185962,20.8099154 C62.9206601,24.8994322 63.9696321,29.4122774 63.9696321,34.0044468 Z" id="Shape"></path>
            </g>
        </g>
    </g>
</svg>